<svg xmlns="http://www.w3.org/2000/svg" viewBox="0 0 285 50"><path fill="#B31E83" d="M196 39.9c-.8 0-1.3-.3-1.6-1l-3.6-7.4h-6.5V38c0 1-.7 1.8-1.7 1.8S181 39 181 38v-17c0-.9.7-1.6 1.7-1.6h7.9c4.6 0 7.1 2 7.1 6 0 2.5-1.2 4.4-3.3 5.3h-.1v.2l3.2 6.4.2.7c0 .9-.6 1.8-1.7 1.8m-11.6-17.3V28.5h6.7a3 3 0 0 0 3.2-3c0-1.5-1-3-3.2-3h-6.7zM204 40c-1 0-1.7-.7-1.7-1.7V21c0-1 .8-1.7 1.7-1.7 1 0 1.7.8 1.7 1.7v17.2c0 1-.7 1.7-1.7 1.7M61.7 38c0 1-.8 1.8-1.9 1.8-.8 0-1.3-.4-1.6-1l-3.5-7.2h-6V38a1.8 1.8 0 0 1-3.6 0V21.5c0-1 .8-1.8 1.8-1.8h7.7c5 0 7 2.4 7 6 0 2.3-1 4.3-3.2 5.3l3 6.2c.2.2.3.5.3.8m-6.6-15h-6.4v5.5h6.4c2 0 2.9-1.5 2.9-2.8C58 24.4 57 23 55 23M68.7 40a2 2 0 0 1-2-2V21.5c0-1.1.9-2 2-2a2 2 0 0 1 2.1 2V38a2 2 0 0 1-2.1 2M85.3 19.4a9 9 0 0 1 9.2 9.1v9.6c0 1.1-1 2-2 2a2 2 0 0 1-2.1-2v-10a5 5 0 0 0-5.1-5c-2.9 0-5 2.2-5 5v10a2 2 0 1 1-4.2 0v-9.6a9 9 0 0 1 9.2-9.1M116.8 36.5c-2 2.5-5.3 3.7-8.3 3.7-6.4 0-10.3-4.8-10.3-10.5a10 10 0 0 1 10.3-10.4c2.3 0 5 .8 6.7 2.6.3.4.6.8.6 1.2 0 .9-.7 1.7-1.7 1.7a2 2 0 0 1-1.2-.4 6.8 6.8 0 0 0-4.4-1.7c-4 0-6.6 3-6.6 7 0 4.1 2.4 7.2 6.6 7.2 2 0 3.9-.7 5-1.8V32h-3.9c-.9 0-1.7-.8-1.7-1.7 0-1 .8-1.7 1.7-1.7h5.7c1 0 1.9.8 1.9 2v4.7c0 .6-.1.8-.4 1.2M29.4 19.6c3 0 5.3 1.5 6.6 3.7V22c0-1.2.9-2.1 2-2.1a2 2 0 0 1 2.2 2v15.8c0 1.2-.7 2-2 2s-2-.9-2-2V36c-1.4 2.6-3.8 3.8-6.7 3.8-5.1 0-9.1-4.2-9.1-10.2 0-6 3.9-10.1 9-10.1m.7 16.8c3.7 0 5.7-3.3 5.7-6.7 0-3.4-2-6.6-5.7-6.6-3.6 0-5.8 2.6-5.8 6.6s2.2 6.7 5.8 6.7M15 35.2c.4-.3.8-.4 1.2-.4 1 0 1.7.8 1.7 1.7 0 .5-.2.9-.6 1.2a9.7 9.7 0 0 1-6.8 2.6C4.5 40.4 0 36.2 0 29.7c0-6.4 4.4-10.6 10.5-10.6 2.4 0 5 .8 6.9 2.6.3.4.6.8.6 1.3 0 1-.7 1.7-1.7 1.7-.5 0-.9-.1-1.3-.4a6.9 6.9 0 0 0-4.5-1.7c-4 0-6.7 3-6.7 7.1s2.6 7.1 6.7 7.2c2 0 3.3-.8 4.5-1.7M169.5 39.8H162c-1 0-1.7-.8-1.7-1.7V21.2c0-1 .8-1.7 1.7-1.7h7.2c3.9 0 6.4 1.9 6.4 5 0 2.3-1.7 3.6-3.2 4.2l-.4.2.5.1c2.6.6 4.3 2.5 4.3 5-.1 2.8-2.4 5.8-7.3 5.8m-5.7-9.2v6.2h6.1c2 0 3.3-1.3 3.3-3.2 0-1.8-1.4-3-3.4-3h-6zm0-8V27.6h5.6c1.8 0 2.7-1.2 2.7-2.5 0-1.5-1-2.5-2.7-2.5h-5.6zM218.1 39.8h-5.7c-1 0-1.7-.8-1.7-1.7V21.2c0-1 .7-1.7 1.7-1.7h5.7c6 0 10.1 4.2 10.1 10.2 0 5.9-4.1 10.1-10.1 10.1m-4-17.1V36.6H218c4.2 0 6.9-2.7 6.9-7 0-4.2-2.7-7-6.9-7H214.1zM250 36.4c-2 2.5-5.3 3.7-8.3 3.7-6.4 0-10.3-4.7-10.3-10.4a10 10 0 0 1 10.3-10.5c2.3 0 5 .8 6.7 2.6.3.4.6.8.6 1.2 0 1-.7 1.7-1.7 1.7a2 2 0 0 1-1.2-.4 6.7 6.7 0 0 0-4.4-1.7c-4 0-6.6 3-6.6 7 0 4.1 2.4 7.2 6.6 7.2 2 0 3.9-.7 5-1.8v-3.1h-3.9c-.9 0-1.6-.7-1.6-1.7s.7-1.6 1.6-1.6h5.7c1 0 2 .8 2 1.8v4.8c-.1.6-.2.8-.5 1.2M263.9 39.9c-7 0-10.2-5.2-10.2-10.3a10 10 0 0 1 10-10.3c5.4 0 9.3 4.3 9.3 10.4 0 .4-.1 1.3-1.5 1.3H257.7v.1c.3 3.5 2.7 5.7 6.3 5.7 2.5 0 4-.8 5.4-2.2.3-.3.8-.7 1.3-.7.8 0 1.6.6 1.6 1.6 0 .4-.1.7-.5 1.1-1.7 2-4.7 3.3-7.9 3.3m-.2-17.5c-3 0-5.4 2.1-5.9 5.2v.2H269.4v-.2c-.4-3-2.8-5.2-5.7-5.2M285 36.4c0 1.9-1.6 3.3-3.7 3.3-2 0-3.7-1.4-3.7-3.3s1.7-3.3 3.7-3.3 3.7 1.4 3.7 3.3m-6.2 0c0 1.3 1.2 2 2.5 2s2.5-.7 2.5-2-1.1-2-2.5-2c-1.3-.1-2.5.7-2.5 2M284.3 26.6c.3 0 .6.2.6.6 0 .3-.1.4-.3.5L282 29v1.9h2.3c.3 0 .6.3.6.6s-.3.5-.7.5h-5.9c-.3 0-.6-.2-.6-.5v-2.5c0-1.6.9-2.3 2.1-2.3.8 0 1.5.3 2 1l2.1-.9.4-.1m-5.3 2.1v2h2v-2c0-.6-.6-.9-1-.9-.6 0-1 .3-1 .9M283.7 19.9c.9.6 1.3 1.6 1.3 2.6 0 2-1.6 3.3-3.7 3.3s-3.6-1.4-3.6-3.2c0-.8.2-1.6.9-2.2l.4-.1c.3 0 .6.2.6.5l-.1.4a2 2 0 0 0-.6 1.4c0 1.3 1 2 2.5 2 1.4 0 2.5-.7 2.5-2 0-.7-.2-1.3-.6-1.7h-1.1v1.3c0 .3-.3.5-.6.5-.4 0-.6-.2-.6-.5v-1.8c0-.3.3-.6.7-.6h1.7l.3.1M274.8 36.8c.9 0 1.6.7 1.6 1.7 0 .9-.7 1.6-1.6 1.7-.9 0-1.6-.8-1.6-1.7 0-.9.7-1.6 1.6-1.6zm0 .3c-.7 0-1.3.6-1.3 1.4 0 .8.6 1.4 1.3 1.4.7 0 1.3-.6 1.3-1.4 0-.8-.6-1.4-1.3-1.4zm-.3 2.3h-.3v-1.8h1.1l.2.4c0 .3-.2.4-.4.5.2 0 .3.2.3.4l.1.4h-.3V39c-.1-.3-.2-.4-.5-.4h-.2v.8zm0-1h.2c.2 0 .4 0 .4-.3 0-.2 0-.3-.4-.3h-.2v.6z"/><radialGradient id="a" cx="129.5" cy="29.3" r="24" gradientUnits="userSpaceOnUse"><stop offset="0" stop-color="#fcbe78"/><stop offset="1" stop-color="#f89720"/></radialGradient><path fill="url(#a)" d="M148 22c-4.6 0-8 5-9.8 5-.9 0-2.3-1.2-4-2.5a11 11 0 0 0-6-2.4 6 6 0 0 0-3.5 1c-9.9 6.7 7.3 25.6 13.5 25.5 6.2 0 22.8-19.2 13.6-25.3a6.6 6.6 0 0 0-3.9-1.3"/><path fill="#F89720" d="M113.2 14.6a1.5 1.5 0 0 1-1.3-2.3c.3-.5 8-12.2 26.2-12.3 18.4-.1 25.5 11.6 25.8 12.1.5.7.2 1.6-.5 2-.7.4-1.6.2-2-.5-.3-.4-6.7-10.7-23-10.7h-.3c-16.6.1-23.5 10.5-23.7 11-.3.5-.8.7-1.2.7"/><path fill="#FAAA4E" d="M138.2 6.9h-.1c-12 0-17 7.8-17.2 8-.4.8-.2 1.7.5 2.1l.8.3c.5 0 1-.3 1.3-.7.1-.3 4.4-6.7 14.6-6.7h.1c10.1 0 14.1 6.3 14.2 6.5.3.5.8.7 1.3.7.3 0 .5 0 .8-.2.7-.5 1-1.4.5-2-.2-.4-4.9-8-16.8-8"/><path fill="#FCBE78" d="M138 13.7a10 10 0 0 0-8.4 4c-.4.7-.2 1.6.5 2.1.2.2.5.2.8.2.5 0 1-.2 1.3-.7 0 0 1.7-2.6 5.8-2.6h.1c4 0 5.6 2.4 5.7 2.5.3.5.8.7 1.3.8.3 0 .5-.1.8-.3.7-.4.9-1.3.5-2-.2-.2-2.6-4-8.3-4"/></svg>